<?xml version="1.0" standalone="no"?>
<!DOCTYPE svg PUBLIC "-//W3C//DTD SVG 20010904//EN"
 "http://www.w3.org/TR/2001/REC-SVG-20010904/DTD/svg10.dtd">
<svg version="1.0" xmlns="http://www.w3.org/2000/svg"
 width="270.000000pt" height="270.000000pt" viewBox="0 0 270.000000 270.000000"
 preserveAspectRatio="xMidYMid meet">
<metadata>
Created by potrace 1.11, written by Peter Selinger 2001-2013
</metadata>
<g transform="translate(0.000000,270.000000) scale(0.100000,-0.100000)"
fill="#000000" stroke="none">
<path d="M1760 2186 l-115 -30 -220 -273 c-121 -151 -227 -283 -235 -295 -10
-15 29 2 130 55 80 42 235 123 345 181 l200 104 8 69 c4 37 6 102 5 143 l-3
75 -115 -29z"/>
<path d="M937 2158 c-37 -99 -447 -1291 -445 -1294 26 -24 57 12 569 659 291
367 529 670 529 672 0 3 -143 5 -319 5 l-318 0 -16 -42z"/>
<path d="M630 2063 l-195 -66 3 -466 c2 -256 7 -500 10 -541 l7 -74 129 399
c71 220 160 493 197 608 38 119 62 207 55 206 -6 0 -99 -30 -206 -66z"/>
<path d="M1937 1938 c-4 -84 -10 -243 -13 -353 l-7 -200 229 225 c126 124 228
227 227 230 -2 6 -416 250 -424 250 -3 0 -9 -69 -12 -152z"/>
<path d="M1562 1706 c-161 -79 -295 -146 -298 -148 -2 -3 98 -18 223 -34 l227
-29 71 -48 70 -47 6 112 c9 168 10 338 2 338 -5 0 -140 -65 -301 -144z"/>
<path d="M288 1724 c-40 -60 -69 -114 -73 -138 -6 -38 -6 -38 19 -32 14 3 47
9 72 13 25 3 48 11 50 18 3 6 3 62 2 124 l-3 113 -67 -98z"/>
<path d="M2300 1698 c-47 -50 -102 -111 -123 -135 l-39 -43 124 -220 c67 -121
126 -220 130 -220 11 0 209 182 206 190 -131 340 -203 520 -207 519 -4 0 -44
-41 -91 -91z"/>
<path d="M1175 1508 c-11 -6 -22 -12 -24 -14 -5 -5 72 -214 79 -214 6 0 113
211 108 215 -5 3 -120 25 -132 25 -6 0 -20 -6 -31 -12z"/>
<path d="M256 1496 c-44 -8 -61 -16 -67 -32 -4 -12 -30 -94 -57 -182 l-50
-162 150 -111 c83 -60 152 -108 155 -105 3 2 0 126 -6 274 -6 148 -11 283 -11
301 0 36 -10 37 -114 17z"/>
<path d="M1360 1396 c-21 -45 -85 -179 -144 -300 -58 -120 -106 -220 -106
-222 0 -4 620 304 628 311 4 4 -68 238 -77 247 -3 3 -64 15 -135 26 l-128 19
-38 -81z"/>
<path d="M2022 1413 c-40 -36 -71 -70 -70 -75 4 -10 381 -297 386 -293 3 3
-224 413 -237 427 -3 4 -39 -22 -79 -59z"/>
<path d="M844 1153 c-137 -169 -251 -311 -252 -315 -2 -5 94 -7 215 -6 l218 3
87 170 c48 94 87 177 88 185 0 20 -93 270 -101 270 -3 0 -118 -138 -255 -307z"/>
<path d="M1746 1373 c8 -26 49 -163 90 -303 42 -140 79 -259 83 -263 7 -7 317
19 332 28 9 6 59 131 59 148 -1 10 -544 425 -571 435 -4 2 -1 -19 7 -45z"/>
<path d="M1730 1106 c-6 -9 -61 -115 -121 -237 -76 -153 -104 -219 -92 -215
94 34 333 143 333 151 -1 28 -88 309 -97 312 -5 2 -16 -3 -23 -11z"/>
<path d="M2032 763 c-49 -3 -75 -8 -78 -17 -5 -13 112 -404 125 -418 4 -5 15
81 24 190 19 218 20 253 10 250 -5 -1 -41 -4 -81 -5z"/>
<path d="M1797 704 l-68 -35 108 -121 c59 -66 130 -147 158 -178 27 -32 51
-57 53 -55 5 4 -172 425 -178 425 -3 -1 -36 -17 -73 -36z"/>
</g>
</svg>
