<?xml version="1.0" encoding="utf-8"?>
<!-- Generator: Adobe Illustrator 22.1.0, SVG Export Plug-In . SVG Version: 6.00 Build 0)  -->
<svg version="1.1" id="Layer_1" xmlns="http://www.w3.org/2000/svg" xmlns:xlink="http://www.w3.org/1999/xlink" x="0px" y="0px"
	 viewBox="0 0 155 118" style="enable-background:new 0 0 155 118;" xml:space="preserve">
<style type="text/css">
	.st0{fill:#ED1C24;}
	.st1{fill:#F15A24;}
	.st2{fill:#D4145A;}
	.st3{fill:#8CC63F;}
	.st4{fill:#00A99D;}
	.st5{fill:#29ABE2;}
	.st6{fill:#0071BC;}
	.st7{fill:#C1272D;}
	.st8{fill:#A4272D;}
	.st9{fill:#9E005D;}
	.st10{fill:#22B573;}
	.st11{fill:#9C272D;}
	.st12{fill:#2E3192;}
</style>
<g id="complex">
	<polygon class="st0" points="20.5,80 2,66.4 8.7,44.6 19.1,42.7 	"/>
	<g>
		<polygon class="st1" points="29,83 26,82 54.1,1.3 93.1,1.3 		"/>
	</g>
	<polygon class="st2" points="58.4,83.6 32.2,83.6 63,45 69.3,62.2 	"/>
	<polygon class="st3" points="64.1,84.2 82.5,95.1 96.1,68.7 	"/>
	<polygon class="st4" points="63.1,81.7 80.9,44.8 96.8,47.3 101.8,62.4 	"/>
	<polygon class="st5" points="66.5,40.3 97,2 110,6 109.4,17.9 	"/>
	<polygon class="st6" points="109.4,22.1 72.2,40.3 100.2,44 108.5,49.8 	"/>
	<polygon class="st7" points="113.6,7.9 111.9,50.7 139.7,23.2 	"/>
	<polygon class="st0" points="140.6,26 153,57.9 140.4,69.1 125.3,42.3 	"/>
	<polygon class="st8" points="122.8,44.8 113.6,53.2 137.9,71.6 	"/>
	<polygon class="st9" points="101,48.2 112.1,85.5 132.1,83.6 135.9,74.5 	"/>
	<polygon class="st10" points="100.2,67.4 86.4,95.4 108.5,85.9 102.7,65.8 	"/>
	<polygon class="st7" points="49,3 22,15 23,81 	"/>
	<polygon class="st11" points="18.8,38.9 18.6,24.1 10.6,35.5 9.6,40.6 	"/>
	<polygon class="st12" points="77.5,44 70.8,57.4 65.8,44 69.1,42.3 	"/>
	<polygon class="st7" points="113.6,88.4 122,115.3 124.5,87.6 	"/>
	<polygon class="st9" points="109.4,89.3 101,93.5 120.3,115.3 	"/>
</g>
</svg>
