<?xml version="1.0" encoding="utf-8"?>
<!-- Generator: Adobe Illustrator 22.1.0, SVG Export Plug-In . SVG Version: 6.00 Build 0)  -->
<svg version="1.1" id="Layer_1" xmlns="http://www.w3.org/2000/svg" xmlns:xlink="http://www.w3.org/1999/xlink" x="0px" y="0px"
	 viewBox="0 0 649 124.3" style="enable-background:new 0 0 649 124.3;" xml:space="preserve">
<style type="text/css">
	.st0{fill:#ED1C24;}
	.st1{fill:#F15A24;}
	.st2{fill:#D4145A;}
	.st3{fill:#8CC63F;}
	.st4{fill:#00A99D;}
	.st5{fill:#29ABE2;}
	.st6{fill:#0071BC;}
	.st7{fill:#C1272D;}
	.st8{fill:#A4272D;}
	.st9{fill:#9E005D;}
	.st10{fill:#22B573;}
	.st11{fill:#9C272D;}
	.st12{fill:#2E3192;}
</style>
<g id="complex">
	<polygon class="st0" points="23.5,84 5,70.4 11.7,48.6 22.1,46.7 	"/>
	<g>
		<polygon class="st1" points="31.8,86.6 29.3,85.7 57.1,5.3 96.1,5.3 		"/>
	</g>
	<polygon class="st2" points="61.4,87.6 35.2,87.6 66.1,49.5 72.3,66.2 	"/>
	<polygon class="st3" points="67.1,88.2 85.5,99.1 99.1,72.7 	"/>
	<polygon class="st4" points="66.1,85.7 83.9,48.8 99.8,51.3 104.8,66.4 	"/>
	<polygon class="st5" points="69.5,44.3 98.5,8.1 113.2,4.3 112.4,21.9 	"/>
	<polygon class="st6" points="112.4,26.1 75.2,44.3 103.2,48 111.5,53.8 	"/>
	<polygon class="st7" points="116.6,11.9 114.9,54.7 142.7,27.2 	"/>
	<polygon class="st0" points="143.6,30 156,61.9 143.4,73.1 128.3,46.3 	"/>
	<polygon class="st8" points="125.8,48.8 116.6,57.2 140.9,75.6 	"/>
	<polygon class="st9" points="104,52.2 115.1,89.5 135.1,87.6 138.9,78.5 	"/>
	<polygon class="st10" points="103.2,71.4 89.4,99.4 111.5,89.9 105.7,69.8 	"/>
	<polygon class="st7" points="50.9,9.6 26,17.8 26.8,84 	"/>
	<polygon class="st11" points="21.8,42.9 21.6,28.1 13.6,39.5 12.6,44.6 	"/>
	<polygon class="st12" points="80.5,48 73.8,61.4 68.8,48 72.1,46.3 	"/>
	<polygon class="st7" points="116.6,92.4 125,119.3 127.5,91.6 	"/>
	<polygon class="st9" points="112.4,93.3 104,97.5 123.3,119.3 	"/>
</g>
<g>
	<g>
		<path d="M208.9,52.8c-0.6,5.7-2.6,10-6.1,13c-3.5,3-8,4.5-13.7,4.5c-4,0-7.5-1-10.6-3s-5.4-4.8-7.1-8.5c-1.7-3.7-2.5-7.8-2.6-12.6
			v-7c0-4.8,0.8-9,2.5-12.7s4.1-6.5,7.2-8.6c3.1-2,6.8-3,10.9-3c5.8,0,10.3,1.6,13.7,4.7c3.3,3.1,5.3,7.4,5.8,12.9h-4.6
			c-1.1-9.1-6.1-13.7-14.9-13.7c-4.9,0-8.8,1.8-11.7,5.5s-4.3,8.7-4.3,15.1V46c0,6.2,1.4,11.2,4.2,14.9c2.8,3.7,6.6,5.6,11.4,5.6
			c4.8,0,8.3-1.1,10.8-3.4c2.4-2.3,3.9-5.7,4.5-10.3H208.9z"/>
		<path d="M244.2,69.6c-0.4-1.3-0.7-3.1-0.9-5.6c-1.6,2-3.5,3.6-5.9,4.7s-4.9,1.6-7.6,1.6c-3.8,0-7-1.1-9.3-3.2
			c-2.4-2.1-3.6-4.9-3.6-8.1c0-3.9,1.6-7,4.9-9.2c3.2-2.3,7.8-3.4,13.6-3.4h8v-4.5c0-2.9-0.9-5.1-2.6-6.7c-1.8-1.6-4.3-2.5-7.7-2.5
			c-3.1,0-5.6,0.8-7.7,2.4c-2,1.6-3,3.5-3,5.7H218c0-3.2,1.5-5.9,4.4-8.3c3-2.3,6.6-3.5,10.9-3.5c4.5,0,8,1.1,10.6,3.3
			s3.9,5.3,4,9.3v18.9c0,3.9,0.4,6.8,1.2,8.7v0.4H244.2z M230.3,66.4c3,0,5.6-0.7,7.9-2.1c2.3-1.4,4-3.3,5.1-5.7v-8.8h-7.9
			c-4.4,0-7.9,0.9-10.4,2.4c-2.5,1.6-3.7,3.7-3.7,6.5c0,2.2,0.8,4.1,2.5,5.6C225.5,65.7,227.6,66.4,230.3,66.4z"/>
		<path d="M291.7,50c0,6.2-1.4,11.2-4.1,14.8c-2.8,3.7-6.5,5.5-11.1,5.5c-5.5,0-9.7-1.9-12.6-5.8V85h-4.4V29.6h4.1l0.2,5.7
			c2.9-4.3,7.1-6.4,12.5-6.4c4.8,0,8.5,1.8,11.3,5.4c2.7,3.6,4.1,8.7,4.1,15.1V50z M287.2,49.2c0-5.1-1-9.1-3.1-12.1s-5-4.4-8.8-4.4
			c-2.7,0-5,0.7-7,2c-1.9,1.3-3.4,3.2-4.5,5.7v19.2c1.1,2.3,2.6,4,4.5,5.3c2,1.2,4.3,1.8,7,1.8c3.7,0,6.6-1.5,8.7-4.5
			C286.2,59.2,287.2,54.9,287.2,49.2z"/>
		<path d="M301.2,18c0-0.8,0.3-1.5,0.8-2.1s1.3-0.9,2.2-0.9c0.9,0,1.7,0.3,2.2,0.9c0.6,0.6,0.8,1.3,0.8,2.1s-0.3,1.5-0.8,2.1
			c-0.6,0.6-1.3,0.8-2.2,0.8c-0.9,0-1.7-0.3-2.2-0.8S301.2,18.9,301.2,18z M306.4,69.6H302v-40h4.4V69.6z"/>
		<path d="M325.3,19.3v10.2h8.3v3.6h-8.3v26.7c0,2.2,0.4,3.9,1.2,5c0.8,1.1,2.1,1.6,4,1.6c0.7,0,1.9-0.1,3.6-0.4l0.2,3.6
			c-1.2,0.4-2.7,0.6-4.7,0.6c-3,0-5.2-0.9-6.6-2.6c-1.4-1.8-2.1-4.4-2.1-7.8V33.2h-7.4v-3.6h7.4V19.3H325.3z"/>
		<path d="M368,69.6c-0.4-1.3-0.7-3.1-0.9-5.6c-1.6,2-3.5,3.6-5.9,4.7s-4.9,1.6-7.6,1.6c-3.8,0-7-1.1-9.3-3.2
			c-2.4-2.1-3.6-4.9-3.6-8.1c0-3.9,1.6-7,4.9-9.2c3.2-2.3,7.8-3.4,13.6-3.4h8v-4.5c0-2.9-0.9-5.1-2.6-6.7c-1.8-1.6-4.3-2.5-7.7-2.5
			c-3.1,0-5.6,0.8-7.7,2.4c-2,1.6-3,3.5-3,5.7h-4.4c0-3.2,1.5-5.9,4.4-8.3c3-2.3,6.6-3.5,10.9-3.5c4.5,0,8,1.1,10.6,3.3
			s3.9,5.3,4,9.3v18.9c0,3.9,0.4,6.8,1.2,8.7v0.4H368z M354.1,66.4c3,0,5.6-0.7,7.9-2.1s4-3.3,5.1-5.7v-8.8h-7.9
			c-4.4,0-7.9,0.9-10.4,2.4c-2.5,1.6-3.7,3.7-3.7,6.5c0,2.2,0.8,4.1,2.5,5.6C349.3,65.7,351.4,66.4,354.1,66.4z"/>
		<path d="M388.3,69.6h-4.4V12.8h4.4V69.6z"/>
		<path d="M419.7,69.6V15.7h15c4.4,0,8.4,1,11.9,3s6.2,4.9,8.2,8.6s2.9,8,2.9,12.8v5c0,4.8-1,9.1-2.9,12.8c-1.9,3.7-4.7,6.6-8.2,8.6
			s-7.6,3-12.2,3L419.7,69.6L419.7,69.6z M424.3,19.6v46.1h10.2c5.7,0,10.2-1.9,13.6-5.6c3.4-3.8,5.1-8.8,5.1-15.3v-4.7
			c0-6.2-1.7-11.1-5.1-14.9s-7.8-5.6-13.3-5.6C434.8,19.6,424.3,19.6,424.3,19.6z"/>
		<path d="M468,18c0-0.8,0.3-1.5,0.8-2.1s1.3-0.9,2.2-0.9c0.9,0,1.7,0.3,2.2,0.9c0.6,0.6,0.8,1.3,0.8,2.1s-0.3,1.5-0.8,2.1
			c-0.6,0.6-1.3,0.8-2.2,0.8c-0.9,0-1.7-0.3-2.2-0.8S468,18.9,468,18z M473.2,69.6h-4.4v-40h4.4V69.6z"/>
		<path d="M509.2,59.4c0-2.2-0.9-4-2.6-5.3s-4.4-2.4-8-3.1c-3.5-0.8-6.3-1.6-8.3-2.6s-3.4-2.2-4.4-3.6c-0.9-1.4-1.4-3.1-1.4-5.1
			c0-3.2,1.3-5.8,4-7.8c2.6-2.1,6-3.1,10.1-3.1c4.5,0,8,1.1,10.7,3.3s4,5.1,4,8.6H509c0-2.3-1-4.3-2.9-5.8c-2-1.6-4.4-2.3-7.4-2.3
			c-2.9,0-5.2,0.6-7,1.9c-1.8,1.3-2.6,3-2.6,5s0.7,3.5,2.2,4.6s4.1,2.1,8,3s6.8,1.9,8.7,2.9c1.9,1,3.4,2.3,4.3,3.7
			c0.9,1.5,1.4,3.2,1.4,5.3c0,3.4-1.4,6.1-4.1,8.1c-2.7,2-6.3,3-10.7,3c-4.7,0-8.4-1.1-11.3-3.4s-4.3-5.1-4.3-8.6h4.4
			c0.2,2.6,1.3,4.6,3.3,6s4.7,2.2,8,2.2c3.1,0,5.6-0.7,7.5-2C508.3,63.2,509.2,61.5,509.2,59.4z"/>
		<path d="M530.5,19.3v10.2h8.3v3.6h-8.3v26.7c0,2.2,0.4,3.9,1.2,5c0.8,1.1,2.1,1.6,4,1.6c0.7,0,1.9-0.1,3.6-0.4l0.2,3.6
			c-1.2,0.4-2.7,0.6-4.7,0.6c-3,0-5.2-0.9-6.6-2.6c-1.4-1.8-2.1-4.4-2.1-7.8V33.2h-7.4v-3.6h7.4V19.3H530.5z"/>
		<path d="M566.4,33.3c-0.9-0.2-1.9-0.3-3-0.3c-2.8,0-5.1,0.8-7,2.3s-3.3,3.8-4.1,6.7v27.5h-4.4v-40h4.3l0.1,6.4
			c2.3-4.7,6.1-7.1,11.3-7.1c1.2,0,2.2,0.2,2.9,0.5L566.4,33.3z"/>
		<path d="M573.1,18c0-0.8,0.3-1.5,0.8-2.1s1.3-0.9,2.2-0.9s1.7,0.3,2.2,0.9c0.6,0.6,0.8,1.3,0.8,2.1s-0.3,1.5-0.8,2.1
			c-0.6,0.6-1.3,0.8-2.2,0.8s-1.7-0.3-2.2-0.8C573.4,19.6,573.1,18.9,573.1,18z M578.3,69.6h-4.4v-40h4.4V69.6z"/>
		<path d="M605.2,66.6c3.1,0,5.7-0.9,7.7-2.6c2.1-1.7,3.2-4,3.4-6.7h4.3c-0.1,2.4-0.9,4.7-2.3,6.7c-1.4,2-3.3,3.6-5.6,4.7
			s-4.8,1.7-7.5,1.7c-5.3,0-9.4-1.8-12.5-5.5c-3.1-3.6-4.6-8.6-4.6-14.7v-1.3c0-3.9,0.7-7.4,2.1-10.5c1.4-3,3.4-5.4,5.9-7
			c2.6-1.7,5.6-2.5,9-2.5c4.4,0,8,1.3,10.9,3.9c2.8,2.6,4.4,6.1,4.6,10.3h-4.3c-0.2-3.1-1.3-5.7-3.4-7.6c-2.1-1.9-4.7-2.9-7.8-2.9
			c-4,0-7.1,1.4-9.3,4.3s-3.3,6.9-3.3,12.1v1.3c0,5.1,1.1,9.1,3.3,11.9C598,65.2,601.1,66.6,605.2,66.6z"/>
		<path d="M636.2,19.3v10.2h8.3v3.6h-8.3v26.7c0,2.2,0.4,3.9,1.2,5c0.8,1.1,2.1,1.6,4,1.6c0.7,0,1.9-0.1,3.6-0.4l0.2,3.6
			c-1.2,0.4-2.7,0.6-4.7,0.6c-3,0-5.2-0.9-6.6-2.6c-1.4-1.8-2.1-4.4-2.1-7.8V33.2h-7.4v-3.6h7.4V19.3H636.2z"/>
	</g>
	<g>
		<path class="st7" d="M193.2,112V93.8l0.2-3.9h-0.1c-0.3,0.9-0.6,1.6-0.9,2.3l-9.1,19.8h-0.6l-9.2-19.7c-0.3-0.6-0.6-1.4-0.8-2.4
			h-0.1c0.1,0.9,0.1,2.1,0.1,3.5V112h-1.8V86.3h1.8l9.5,20.6c0.2,0.4,0.4,1.1,0.8,2.2h0.1c0.4-1.3,0.7-2,0.8-2.3l9.4-20.5h1.7V112
			H193.2z"/>
		<path class="st7" d="M212.1,112v-3.6H212c-0.6,1.3-1.5,2.3-2.6,3s-2.3,1.1-3.7,1.1c-1.7,0-3.1-0.5-4.1-1.5s-1.6-2.2-1.6-3.7
			c0-3.3,2.1-5.2,6.4-5.8l5.6-0.8c0-3.9-1.5-5.8-4.4-5.8c-2,0-4,0.8-5.9,2.4v-2c0.8-0.6,1.7-1.1,2.8-1.4s2.2-0.5,3.3-0.5
			c1.9,0,3.4,0.6,4.4,1.8c1,1.2,1.5,2.9,1.5,5.1V112H212.1z M202,107.1c0,1.1,0.4,2,1.1,2.7s1.7,1,3,1c1.1,0,2.2-0.3,3.1-0.9
			c0.9-0.6,1.7-1.4,2.2-2.5s0.8-2.3,0.8-3.6V102l-5,0.7c-1.9,0.3-3.2,0.7-4,1.4C202.3,104.9,202,105.9,202,107.1z"/>
		<path class="st7" d="M228.1,95.4c-0.6-0.4-1.2-0.6-2-0.6c-1.5,0-2.7,0.8-3.7,2.3c-0.9,1.5-1.4,3.6-1.4,6.2v8.7h-1.7V93.6h1.7v4.1
			h0.1c0.4-1.4,1.1-2.5,2-3.2c0.9-0.8,2-1.2,3.2-1.2c0.7,0,1.3,0.1,1.8,0.3L228.1,95.4L228.1,95.4z"/>
		<path class="st7" d="M240.2,95.4c-0.6-0.4-1.2-0.6-2-0.6c-1.5,0-2.7,0.8-3.7,2.3c-0.9,1.5-1.4,3.6-1.4,6.2v8.7h-1.7V93.6h1.7v4.1
			h0.1c0.4-1.4,1.1-2.5,2-3.2c0.9-0.8,2-1.2,3.2-1.2c0.7,0,1.3,0.1,1.8,0.3L240.2,95.4L240.2,95.4z"/>
		<path class="st7" d="M244.5,89c-0.4,0-0.7-0.1-1-0.4s-0.4-0.6-0.4-1s0.1-0.7,0.4-1c0.3-0.3,0.6-0.4,1-0.4s0.7,0.1,1,0.4
			c0.3,0.2,0.4,0.6,0.4,1s-0.1,0.7-0.4,1C245.2,88.8,244.9,89,244.5,89z M243.7,112V93.6h1.7V112H243.7z"/>
		<path class="st7" d="M262.2,112v-3.6h-0.1c-0.6,1.3-1.5,2.3-2.6,3s-2.3,1.1-3.7,1.1c-1.7,0-3.1-0.5-4.1-1.5s-1.6-2.2-1.6-3.7
			c0-3.3,2.1-5.2,6.4-5.8l5.6-0.8c0-3.9-1.5-5.8-4.4-5.8c-2,0-4,0.8-5.9,2.4v-2c0.8-0.6,1.7-1.1,2.8-1.4s2.2-0.5,3.3-0.5
			c1.9,0,3.4,0.6,4.4,1.8c1,1.2,1.5,2.9,1.5,5.1V112H262.2z M252,107.1c0,1.1,0.4,2,1.1,2.7s1.7,1,3,1c1.1,0,2.2-0.3,3.1-0.9
			s1.7-1.4,2.2-2.5s0.8-2.3,0.8-3.6V102l-5,0.7c-1.9,0.3-3.2,0.7-4,1.4C252.4,104.9,252,105.9,252,107.1z"/>
		<path class="st7" d="M284.2,110.6c0,3.4-0.8,5.9-2.2,7.6c-1.5,1.6-3.9,2.4-7.1,2.4c-1.8,0-3.6-0.5-5.5-1.4v-1.8
			c2,1.1,3.8,1.6,5.5,1.6c5,0,7.5-2.7,7.5-8v-2.4h-0.1c-1.5,2.5-3.7,3.7-6.6,3.7c-1.5,0-2.9-0.4-4-1.1c-1.2-0.8-2.1-1.8-2.7-3.2
			c-0.6-1.4-0.9-3-0.9-4.9s0.4-3.7,1.1-5.2s1.7-2.7,3-3.5s2.7-1.3,4.4-1.3c2.7,0,4.6,1.1,5.9,3.3h0.1v-2.9h1.7L284.2,110.6
			L284.2,110.6z M282.5,100.7c0-1.1-0.2-2.1-0.7-3s-1.2-1.6-2.1-2.2c-0.9-0.5-1.9-0.8-3-0.8c-2,0-3.6,0.8-4.8,2.3
			c-1.2,1.5-1.8,3.5-1.8,6c0,2.4,0.5,4.3,1.6,5.7c1.1,1.4,2.6,2.1,4.5,2.1s3.4-0.6,4.6-1.9s1.8-2.8,1.8-4.7v-3.5H282.5z"/>
		<path class="st7" d="M290.5,102.9c0,2.5,0.6,4.4,1.7,5.8c1.2,1.4,2.7,2.1,4.8,2.1c2.1,0,4.1-0.8,6-2.3v1.8c-1.9,1.3-4,2-6.4,2
			c-2.5,0-4.4-0.9-5.8-2.6c-1.4-1.8-2.1-4.1-2.1-7.1c0-1.7,0.4-3.3,1.1-4.8s1.7-2.6,2.9-3.5c1.3-0.8,2.7-1.3,4.3-1.3
			c2.2,0,4,0.8,5.2,2.4c1.3,1.6,1.9,3.8,1.9,6.6v0.8L290.5,102.9L290.5,102.9z M302.3,101.3c-0.1-2.1-0.6-3.7-1.5-4.9
			c-0.9-1.2-2.2-1.7-3.9-1.7c-1.7,0-3.1,0.6-4.3,1.7c-1.1,1.2-1.8,2.8-2.1,4.9H302.3z"/>
		<path class="st7" d="M338.3,112l-3.4-3.3c-2.4,2.5-5.3,3.8-8.6,3.8c-2.4,0-4.4-0.6-5.8-1.9c-1.5-1.3-2.2-2.9-2.2-5
			c0-3.3,2-5.8,6-7.6c-1.9-2.2-2.9-4.3-2.9-6.1c0-1.7,0.6-3.2,1.7-4.3c1.2-1.1,2.7-1.7,4.5-1.7c1.7,0,3.1,0.5,4.1,1.4
			s1.6,2.2,1.6,3.8s-0.5,3-1.4,4.1c-1,1.2-2.5,2.2-4.7,3.2c2.1,2.2,4.7,4.7,7.8,7.7c1.5-2.2,2.3-4.8,2.4-7.7h1.8
			c-0.1,3.3-1.1,6.2-3,8.9l4.8,4.7H338.3z M333.8,107.5c-4.1-4-6.9-6.8-8.4-8.4c-3.6,1.6-5.3,3.7-5.3,6.3c0,1.6,0.6,3,1.8,4
			s2.7,1.5,4.6,1.5C329.2,110.9,331.6,109.7,333.8,107.5z M325.9,97.2c2-0.9,3.4-1.8,4.3-2.7c0.8-0.9,1.3-2,1.3-3.3
			c0-1.1-0.4-2-1.1-2.8c-0.7-0.7-1.7-1.1-2.8-1.1c-1.3,0-2.3,0.4-3.1,1.3c-0.8,0.8-1.3,1.9-1.3,3.2
			C323.1,93.3,324.1,95.1,325.9,97.2z"/>
		<path class="st7" d="M356.6,87.9v10.4h9.5v1.7h-9.5v12h-1.8V86.3h12.1V88L356.6,87.9L356.6,87.9z"/>
		<path class="st7" d="M381.1,112v-3.6H381c-0.6,1.3-1.5,2.3-2.6,3s-2.3,1.1-3.7,1.1c-1.7,0-3.1-0.5-4.1-1.5s-1.6-2.2-1.6-3.7
			c0-3.3,2.1-5.2,6.4-5.8l5.6-0.8c0-3.9-1.5-5.8-4.4-5.8c-2,0-4,0.8-5.9,2.4v-2c0.8-0.6,1.7-1.1,2.8-1.4c1.1-0.3,2.2-0.5,3.3-0.5
			c1.9,0,3.4,0.6,4.4,1.8c1,1.2,1.5,2.9,1.5,5.1V112H381.1z M370.9,107.1c0,1.1,0.4,2,1.1,2.7s1.7,1,3,1c1.1,0,2.2-0.3,3.1-0.9
			s1.7-1.4,2.2-2.5s0.8-2.3,0.8-3.6V102l-5,0.7c-1.9,0.3-3.2,0.7-4,1.4C371.3,104.9,370.9,105.9,370.9,107.1z"/>
		<path class="st7" d="M411.3,112v-11c0-2.2-0.3-3.8-1-4.8s-1.8-1.4-3.4-1.4c-0.9,0-1.8,0.3-2.6,0.9c-0.8,0.6-1.5,1.4-1.9,2.3
			c-0.5,1-0.7,2.1-0.7,3.2V112H400v-11.2c0-4.1-1.5-6.1-4.6-6.1c-1.5,0-2.7,0.6-3.7,1.9s-1.5,2.9-1.5,4.8V112h-1.7V93.6h1.7v3.1h0.1
			c1.3-2.3,3.1-3.5,5.6-3.5c1.3,0,2.4,0.4,3.4,1.1c1,0.8,1.6,1.8,2,3c0.6-1.3,1.4-2.3,2.4-3.1s2.2-1.1,3.5-1.1c4,0,6,2.5,6,7.5V112
			H411.3z"/>
		<path class="st7" d="M419.4,89c-0.4,0-0.7-0.1-1-0.4s-0.4-0.6-0.4-1s0.1-0.7,0.4-1s0.6-0.4,1-0.4s0.7,0.1,1,0.4
			c0.3,0.2,0.4,0.6,0.4,1s-0.1,0.7-0.4,1C420.1,88.8,419.8,89,419.4,89z M418.5,112V93.6h1.7V112H418.5z"/>
		<path class="st7" d="M426.1,112V84.8h1.7V112H426.1z"/>
		<path class="st7" d="M432.9,120.6c-0.6,0-1-0.1-1.4-0.2v-1.7c0.5,0.2,1,0.2,1.5,0.2c1.5,0,2.6-1,3.5-3l1.7-4.1l-7-18.2h1.9
			l5.5,14.9l0.4,1.3h0.1l0.4-1.3l5.9-15h1.8l-8.9,22.1c-0.7,1.7-1.5,3-2.3,3.8C435.2,120.2,434.1,120.6,432.9,120.6z"/>
		<path class="st7" d="M467.9,87.9v24h-1.8v-24h-7.4v-1.7h16.7v1.7H467.9z"/>
		<path class="st7" d="M491.8,112v-11c0-2.2-0.4-3.7-1.2-4.7c-0.8-1-2-1.5-3.7-1.5c-1.1,0-2.1,0.3-3,0.9s-1.6,1.4-2.1,2.4
			c-0.5,1.1-0.8,2.2-0.8,3.6V112h-1.7V84.8h1.7v12.1h0.1c1.5-2.5,3.6-3.7,6.3-3.7c2,0,3.5,0.6,4.5,1.9s1.5,3.1,1.5,5.5V112H491.8z"
			/>
		<path class="st7" d="M499.5,102.9c0,2.5,0.6,4.4,1.7,5.8c1.2,1.4,2.7,2.1,4.8,2.1c2.1,0,4.1-0.8,6-2.3v1.8c-1.9,1.3-4,2-6.4,2
			c-2.5,0-4.4-0.9-5.8-2.6c-1.4-1.8-2.1-4.1-2.1-7.1c0-1.7,0.4-3.3,1.1-4.8s1.7-2.6,2.9-3.5c1.3-0.8,2.7-1.3,4.3-1.3
			c2.2,0,4,0.8,5.2,2.4c1.3,1.6,1.9,3.8,1.9,6.6v0.8L499.5,102.9L499.5,102.9z M511.3,101.3c-0.1-2.1-0.6-3.7-1.5-4.9
			c-0.9-1.2-2.2-1.7-3.9-1.7c-1.7,0-3.1,0.6-4.3,1.7c-1.1,1.2-1.8,2.8-2.1,4.9H511.3z"/>
		<path class="st7" d="M526.3,95.4c-0.6-0.4-1.2-0.6-2-0.6c-1.5,0-2.7,0.8-3.7,2.3c-0.9,1.5-1.4,3.6-1.4,6.2v8.7h-1.7V93.6h1.7v4.1
			h0.1c0.4-1.4,1.1-2.5,2-3.2c0.9-0.8,2-1.2,3.2-1.2c0.7,0,1.3,0.1,1.8,0.3L526.3,95.4L526.3,95.4z"/>
		<path class="st7" d="M540.7,112v-3.6h-0.1c-0.6,1.3-1.5,2.3-2.6,3s-2.3,1.1-3.7,1.1c-1.7,0-3.1-0.5-4.1-1.5s-1.6-2.2-1.6-3.7
			c0-3.3,2.1-5.2,6.4-5.8l5.6-0.8c0-3.9-1.5-5.8-4.4-5.8c-2,0-4,0.8-5.9,2.4v-2c0.8-0.6,1.7-1.1,2.8-1.4s2.2-0.5,3.3-0.5
			c1.9,0,3.4,0.6,4.4,1.8c1,1.2,1.5,2.9,1.5,5.1V112H540.7z M530.5,107.1c0,1.1,0.4,2,1.1,2.7s1.7,1,3,1c1.1,0,2.2-0.3,3.1-0.9
			c0.9-0.6,1.7-1.4,2.2-2.5s0.8-2.3,0.8-3.6V102l-5,0.7c-1.9,0.3-3.2,0.7-4,1.4C530.9,104.9,530.5,105.9,530.5,107.1z"/>
		<path class="st7" d="M549.6,108.7v11.7h-1.7V93.6h1.7v3.8h0.1c0.7-1.3,1.6-2.4,2.8-3.1s2.6-1.1,4.1-1.1c2.3,0,4.1,0.8,5.5,2.4
			c1.3,1.6,2,3.8,2,6.5c0,2-0.3,3.8-1,5.4s-1.7,2.8-2.9,3.7s-2.7,1.3-4.3,1.3C553,112.4,551,111.2,549.6,108.7L549.6,108.7z
			 M549.6,104.2c0,1.2,0.3,2.3,0.8,3.4s1.3,1.8,2.2,2.4s2,0.9,3.2,0.9s2.3-0.4,3.3-1.1s1.7-1.8,2.2-3.1c0.5-1.3,0.8-2.8,0.8-4.5
			c0-2.3-0.5-4.1-1.6-5.4s-2.5-2-4.3-2c-1.3,0-2.5,0.3-3.5,0.9s-1.8,1.5-2.3,2.6c-0.6,1.1-0.8,2.3-0.8,3.7L549.6,104.2L549.6,104.2z
			"/>
		<path class="st7" d="M567.7,120.6c-0.6,0-1-0.1-1.4-0.2v-1.7c0.5,0.2,1,0.2,1.5,0.2c1.5,0,2.6-1,3.5-3l1.7-4.1l-7-18.2h1.9
			l5.5,14.9l0.4,1.3h0.1l0.4-1.3l5.9-15h1.8l-8.9,22.1c-0.7,1.7-1.5,3-2.3,3.8C570,120.2,568.9,120.6,567.7,120.6z"/>
	</g>
</g>
</svg>
